<?xml version="1.0" standalone="no"?>
<!DOCTYPE svg PUBLIC "-//W3C//DTD SVG 20010904//EN"
 "http://www.w3.org/TR/2001/REC-SVG-20010904/DTD/svg10.dtd">
<svg version="1.0" xmlns="http://www.w3.org/2000/svg"
 width="740.000000pt" height="740.000000pt" viewBox="0 0 740.000000 740.000000"
 preserveAspectRatio="xMidYMid meet">

<g transform="translate(0.000000,740.000000) scale(0.100000,-0.100000)"
fill="#000000" stroke="none">
<path d="M3540 6966 c-86 -19 -130 -35 -200 -73 -167 -90 -292 -232 -371 -421
-36 -88 -69 -196 -69 -229 0 -28 -6 -28 -107 1 -250 74 -517 89 -704 41 -148
-39 -294 -141 -375 -262 -102 -153 -158 -405 -134 -599 37 -294 211 -509 516
-638 44 -18 94 -37 112 -40 17 -4 32 -14 32 -21 0 -8 -18 -137 -40 -287 -138
-956 -160 -1115 -155 -1140 11 -46 65 -96 113 -104 l42 -7 0 -82 c0 -112 33
-295 76 -424 51 -156 102 -239 214 -352 79 -79 110 -103 180 -137 91 -45 219
-82 282 -82 37 0 39 -2 63 -56 14 -31 25 -62 25 -68 0 -17 -60 -77 -100 -101
-65 -39 -75 -64 -72 -181 1 -69 7 -115 17 -134 19 -36 19 -74 1 -144 -17 -64
-8 -112 30 -163 13 -17 24 -43 24 -58 0 -68 51 -111 121 -101 24 3 63 7 87 9
41 2 43 0 62 -39 25 -51 26 -117 1 -158 -10 -17 -22 -42 -26 -56 -4 -14 -21
-45 -38 -70 -22 -32 -31 -57 -32 -87 l0 -43 -55 0 c-86 0 -288 -20 -317 -31
-17 -6 -23 -13 -17 -19 66 -66 1872 -66 1938 0 18 18 -49 31 -216 43 l-168 11
0 36 c0 24 -11 53 -35 89 -19 29 -35 58 -35 64 0 7 -11 30 -25 52 -31 50 -32
103 -4 171 27 63 20 129 -17 173 l-24 29 25 16 c87 57 104 105 103 295 0 85
-4 166 -9 179 -8 21 -7 23 8 16 10 -5 44 -9 75 -9 42 0 64 5 85 21 35 26 97
38 138 26 44 -12 109 5 146 38 20 20 42 30 63 30 51 1 112 34 142 79 29 44 71
74 119 85 45 11 89 49 110 95 l18 41 507 0 c352 0 517 3 541 11 40 14 85 53
105 91 35 67 4 178 -61 221 -30 19 -35 27 -35 62 0 141 -108 336 -249 450 -78
63 -190 125 -282 154 l-67 22 -4 50 c-10 95 -98 179 -190 179 -31 0 -38 4 -43
23 -2 12 -43 292 -90 622 -47 330 -87 614 -90 631 -5 29 -3 31 44 43 83 21
264 117 345 181 121 98 205 224 246 372 76 270 -7 631 -184 809 -115 115 -257
179 -444 200 -160 18 -418 -15 -603 -78 l-57 -19 -20 80 c-31 127 -77 235
-141 333 -120 181 -285 295 -490 338 -86 18 -282 18 -361 1z m340 -147 c139
-27 301 -138 382 -264 80 -123 148 -312 148 -413 0 -38 40 -88 77 -95 15 -3
48 3 75 14 161 63 366 103 538 103 282 1 443 -87 544 -296 59 -122 79 -207 80
-338 0 -168 -51 -323 -135 -415 -88 -95 -256 -192 -442 -254 -110 -37 -109
-33 -75 -269 15 -103 61 -423 103 -711 46 -322 72 -528 66 -534 -5 -5 -82 20
-198 67 -324 130 -511 187 -818 246 -624 120 -1294 26 -1914 -266 -63 -30
-116 -53 -117 -51 -2 1 42 313 96 692 55 379 100 710 100 736 0 63 -21 86 -95
104 -220 56 -398 173 -488 321 -63 104 -82 181 -81 324 1 207 53 364 161 480
67 72 133 112 238 141 67 19 104 23 225 23 165 -1 277 -20 470 -83 120 -39
162 -40 190 -6 7 8 21 63 32 121 34 194 107 343 223 459 157 156 365 211 615
164z m60 -3249 c314 -29 675 -118 1001 -247 l119 -47 0 -62 0 -61 -77 -46
c-136 -80 -232 -174 -298 -292 -37 -66 -75 -185 -75 -233 0 -27 -6 -34 -44
-50 -63 -29 -99 -80 -104 -153 -3 -46 0 -66 16 -94 l21 -35 -27 -7 c-15 -4
-64 -7 -108 -8 l-82 0 -6 -48 c-8 -72 -48 -152 -85 -171 -88 -46 -169 4 -206
127 l-11 38 -18 -62 c-13 -41 -31 -74 -56 -100 -32 -34 -43 -39 -82 -39 -40 0
-50 5 -76 35 -17 19 -34 51 -38 72 l-7 37 -13 -43 c-19 -65 -58 -101 -110
-101 -69 0 -107 42 -145 160 -12 36 -18 46 -19 30 0 -14 -11 -49 -25 -77 -39
-84 -114 -115 -186 -77 -37 19 -75 96 -84 168 l-7 51 -86 1 c-263 3 -480 149
-593 401 -65 141 -103 346 -97 523 l3 105 105 47 c275 123 680 231 965 257
132 12 403 12 535 1z m1530 -290 c11 -11 20 -29 20 -40 0 -18 -7 -20 -81 -20
-79 0 -80 0 -74 23 16 55 95 77 135 37z m118 -205 c169 -40 330 -147 423 -282
41 -59 79 -164 79 -218 l0 -45 -670 0 c-759 0 -690 -9 -671 88 40 203 236 387
482 452 92 24 266 26 357 5z m593 -665 c22 -12 26 -59 7 -78 -17 -17 -1569
-17 -1586 0 -18 18 -15 65 6 77 24 14 1546 15 1573 1z m-1190 -227 c-46 -6
-178 -104 -183 -135 -5 -36 -41 -35 -67 0 -12 17 -21 37 -21 45 0 21 26 40 47
33 11 -3 35 8 63 29 43 33 49 34 120 33 41 -1 60 -3 41 -5z m-381 -169 c27
-54 17 -74 -27 -58 -38 13 -202 -17 -215 -40 -11 -20 -42 -21 -58 -1 -9 11 -6
21 15 49 15 20 31 33 36 31 17 -11 188 27 205 46 9 11 18 19 20 19 1 0 12 -21
24 -46z m-1440 -168 c-25 -41 -42 -50 -74 -42 l-27 7 36 44 c33 40 39 43 61
33 l24 -11 -20 -31z m550 -242 c0 -211 3 -264 13 -264 7 0 24 -14 37 -32 17
-23 20 -35 13 -47 -14 -23 -51 -26 -73 -6 -18 16 -20 16 -36 1 -19 -20 -53
-17 -67 5 -10 16 5 41 46 78 15 14 17 40 17 272 0 197 3 258 13 262 35 12 37
0 37 -269z m-276 231 c31 -14 56 -26 56 -29 0 -2 -29 -18 -65 -35 -97 -48
-131 -104 -82 -135 12 -8 51 -19 86 -25 36 -6 69 -15 74 -20 19 -19 -6 -31
-66 -31 -128 0 -197 43 -197 121 0 50 35 116 82 153 41 32 42 32 112 1z m625
-10 c49 -44 71 -90 71 -148 0 -55 -31 -90 -95 -106 -56 -14 -162 -14 -171 0
-11 18 10 29 77 40 73 12 109 31 109 58 0 33 -46 77 -112 106 l-63 29 60 27
c33 16 66 28 72 29 7 0 30 -16 52 -35z m-970 -159 c16 -10 14 -41 -5 -57 -14
-12 -16 -27 -10 -104 5 -62 12 -95 24 -108 26 -29 4 -52 -48 -52 -53 0 -74 23
-47 53 13 15 17 38 17 107 0 77 -3 92 -22 112 -20 22 -20 24 -4 42 17 19 69
23 95 7z m220 -220 c31 -8 84 -17 118 -21 130 -14 112 -63 -19 -52 -77 7 -134
30 -156 65 -17 26 -16 26 57 8z m809 -8 c-21 -33 -76 -57 -145 -64 -70 -8
-113 0 -113 21 0 17 14 21 118 35 46 6 93 15 105 20 41 16 51 13 35 -12z
m-921 -183 c7 -20 -24 -55 -48 -55 -29 0 -33 20 -8 46 26 28 47 31 56 9z
m-157 -50 c0 -26 -14 -33 -25 -15 -9 14 1 40 15 40 5 0 10 -11 10 -25z m381
-24 c16 -2 18 -36 4 -57 -10 -16 -15 -48 -15 -97 l0 -74 -30 5 c-30 4 -30 4
-30 72 0 54 -4 70 -20 85 -50 46 -1 81 91 66z m628 -5 c15 -10 14 -41 -3 -55
-8 -7 -17 -43 -21 -86 -5 -52 -11 -75 -20 -75 -7 0 -21 -3 -31 -7 -15 -6 -16
1 -10 70 7 68 6 77 -13 96 -21 21 -19 48 3 63 12 8 78 4 95 -6z m-225 -101
c18 -45 13 -119 -11 -165 -7 -14 -13 -38 -13 -54 0 -16 -10 -49 -21 -73 -15
-31 -20 -55 -16 -79 l6 -34 -82 0 -82 0 0 54 c0 37 -5 60 -17 73 -10 11 -18
35 -18 54 0 19 -7 47 -15 63 -17 32 -21 151 -5 161 6 3 10 14 10 23 0 15 14
17 123 17 l124 0 17 -40z m-433 -216 l38 -12 -22 -17 c-15 -12 -32 -16 -53
-13 -19 3 -45 -1 -63 -10 -28 -14 -31 -14 -31 1 0 27 14 42 46 52 40 12 42 12
85 -1z m684 -3 c25 -11 35 -21 35 -37 0 -17 -4 -19 -17 -13 -10 5 -38 9 -63 9
-25 1 -56 7 -70 15 l-25 13 35 13 c47 17 64 17 105 0z m-561 -102 c20 -20 20
-38 0 -59 -26 -26 -57 -15 -65 22 -10 49 30 72 65 37z m404 4 c11 -14 5 -65
-10 -74 -5 -3 -20 -3 -34 0 -18 5 -24 13 -24 34 0 45 43 70 68 40z m-563 -34
c12 -12 13 -19 4 -30 -6 -8 -18 -14 -26 -14 -19 0 -28 27 -13 45 15 19 15 19
35 -1z m703 -18 c-2 -13 -10 -21 -23 -21 -23 0 -33 34 -14 45 20 13 40 -1 37
-24z m-839 -12 c-9 -11 -15 -12 -25 -3 -11 9 -12 15 -3 25 9 11 15 12 25 3 11
-9 12 -15 3 -25z m971 16 c0 -4 -6 -13 -14 -19 -17 -14 -31 2 -22 24 5 15 36
10 36 -5z"/>
<path d="M2797 5173 c-17 -11 -31 -32 -36 -53 -10 -39 -82 -821 -81 -886 0
-53 31 -84 83 -84 41 0 73 25 81 62 16 70 84 901 77 921 -19 50 -78 69 -124
40z"/>
<path d="M3662 5175 c-18 -8 -37 -26 -42 -40 -6 -16 -10 -205 -10 -481 l0
-456 29 -29 c16 -16 39 -29 51 -29 28 0 76 26 84 45 10 28 8 943 -3 964 -8 14
-64 45 -75 41 -1 -1 -16 -7 -34 -15z"/>
<path d="M4520 5177 c-57 -29 -57 -22 -12 -518 35 -378 45 -458 60 -478 37
-50 104 -48 138 5 17 25 16 45 -25 483 -44 481 -46 492 -97 511 -32 12 -34 12
-64 -3z"/>
<path d="M2930 3241 c-113 -35 -200 -151 -200 -267 0 -109 86 -225 193 -258
63 -20 132 -17 193 9 45 19 112 82 136 129 25 49 34 138 19 193 -31 116 -144
204 -259 202 -32 0 -68 -4 -82 -8z m55 -151 c24 -25 30 -39 30 -75 0 -37 -6
-50 -33 -77 -27 -27 -40 -33 -77 -33 -37 0 -50 6 -77 33 -76 76 -15 201 92
187 20 -3 46 -16 65 -35z m158 -161 c14 -23 0 -67 -24 -74 -24 -8 -69 19 -69
41 0 8 5 24 11 35 13 24 66 23 82 -2z"/>
<path d="M4310 3241 c-115 -35 -192 -140 -194 -263 -2 -246 294 -367 470 -191
53 53 74 105 74 189 0 86 -31 156 -92 208 -66 57 -177 81 -258 57z m84 -125
c45 -19 66 -52 66 -102 0 -78 -67 -127 -141 -105 -96 29 -105 161 -15 205 39
19 48 19 90 2z m200 -198 c8 -22 6 -32 -9 -48 -22 -24 -42 -25 -67 -3 -38 34
-15 86 37 81 22 -2 32 -10 39 -30z"/>
<path d="M1660 2310 c-280 -73 -503 -301 -571 -585 -31 -131 -24 -295 18 -417
79 -227 255 -415 463 -492 218 -81 433 -67 648 40 190 95 329 267 393 485 16
55 22 106 24 201 l2 127 67 78 c41 48 68 91 72 111 10 49 -11 106 -51 141 -35
31 -37 31 -143 31 l-107 0 -43 50 c-86 99 -265 202 -409 234 -100 22 -267 20
-363 -4z m397 -153 c125 -43 238 -123 303 -216 l35 -50 119 -3 119 -3 -77 -90
-77 -89 8 -46 c54 -333 -156 -652 -482 -735 -75 -19 -222 -19 -303 0 -180 42
-342 173 -422 340 -179 371 16 798 413 906 101 27 263 21 364 -14z"/>
<path d="M1604 1960 c-89 -28 -182 -122 -209 -212 -45 -152 5 -344 125 -481
86 -97 275 -217 343 -217 67 0 228 95 326 192 240 236 231 581 -19 696 -70 33
-170 34 -248 4 l-52 -20 -43 21 c-48 23 -172 33 -223 17z m556 -189 c96 -92
69 -277 -61 -413 l-51 -53 40 50 c22 28 53 75 69 105 25 49 28 65 28 150 0 85
-3 99 -24 130 -14 19 -30 38 -35 42 -6 4 -20 13 -31 22 -20 15 -19 15 4 9 13
-3 40 -22 61 -42z m-56 -2 c34 -27 34 -49 -1 -49 -37 1 -78 32 -70 54 9 22 39
20 71 -5z m46 -64 c0 -8 -4 -15 -9 -15 -13 0 -22 16 -14 24 11 11 23 6 23 -9z"/>
</g>
</svg>
